<svg version="1" xmlns="http://www.w3.org/2000/svg" width="346.667" height="346.667" viewBox="0 0 260.000000 260.000000"><path d="M108.1 1.6C83.2 5.8 59.6 17.9 40.6 36.1 21.2 54.6 8.4 77.7 2.9 104.3c-2.5 11.9-3.4 46-1.4 48.7.7.8 2.2 5.5 3.5 10.5 10.6 41.4 42.8 75.4 84.5 89.4 21.2 7.1 48.2 8.5 69.3 3.6 47.5-11 85-47.3 97.1-93.9 3.1-11.8 3.6-16.5 3.5-34.1 0-16.5-1.3-25.8-5.5-39-2.2-6.8-11.1-25.1-16.4-33.7-4.8-7.8-21-24.4-30.4-31.2-15.4-11-35.1-19.5-53.2-22.9-10.1-1.9-35.1-1.9-45.8-.1zm15.4 36.1v24.8l-24.3.3-24.3.2.7-2.2c.3-1.3 2-5 3.6-8.3 9.9-19.8 24.9-34.7 39.2-39 2.2-.7 4.3-1.1 4.6-1 .3.2.5 11.5.5 25.2zm24.9-22.1c13.6 6.8 24.2 18.5 33.6 36.9l5.1 10-25.7.3c-14.1.1-25.9 0-26.1-.2-.4-.3-.5-26.7-.3-45.9V12l4.1.5c2.3.3 6.4 1.7 9.3 3.1zm-64.6 9C78.7 30 69.5 45.1 66 53.8c-1.8 4.2-3.5 8.1-3.9 8.5-.4.4-7 .6-14.6.5l-13.8-.3 6.1-7.6c6.8-8.4 12.4-13.7 22.2-20.7 6.8-4.9 21.6-13.1 23.8-13.2.7 0-.2 1.6-2 3.6zm104 2.6c13.9 7.6 26.4 18.8 38.1 34 1.3 1.7.5 1.8-12.7 1.8h-14l-2.1-5.3c-4.8-11.4-12.9-25.2-19.7-33.5l-2.7-3.3 2.9 1.1c1.6.6 6.2 3 10.2 5.2zM58 75.1c0 .4-1.1 5.4-2.5 11.1-1.4 5.7-2.5 11.2-2.5 12.3 0 1.5-1.8 2.8-7.8 5.4-10.4 4.7-20.2 11-26.9 17.6l-5.6 5.4.6-8.2c.8-10.6 4.5-25.1 9.2-35.9l3.6-8.5h16c8.7-.1 15.9.3 15.9.8zm65.5 9.7l.1 10.3-7.6-.7c-4.1-.3-7.9-.8-8.3-1.1-.4-.2.1-1.9 1.3-3.7 2.2-3.7 2.5-6.7 1-9.7-1.3-2.4-5.9-4.7-8.4-4.3-1 .1-4 .4-6.5.5-9.3.5-17.3 5.4-24.2 14.9-4 5.5-5.9 7.2-5.9 5.2.1-2.1 4-18.4 4.9-20 .9-1.8 2.6-1.9 27.3-1.8l26.3.1v10.3zm59.8-9.3c-12.8 3.8-22.3 16.3-22.3 29.3 0 1.8-.3 3.2-.7 3-6.9-3.3-13.1-5.9-18.6-7.7-5.1-1.7-6.7-2.7-6.8-4.2v-8.4-9.8l.1-3.3 26.3-.1c22.6 0 25.6.1 22 1.2zm50.8-.6c2 .4 9.5 20.8 11.4 31.1.3 1.4.7 3.4 1 4.5.9 4.4 1.6 19.7.8 19.4-.4-.2-3.2-1.7-6.1-3.2-5.4-2.9-18.7-5.3-28.3-5.2h-4.7l3-4.2c5.8-8.5 6.8-12.7 7-31.3.2-9 .5-11 1.8-11.2 1.4-.3 12.7-.2 14.1.1zM173 145.7c0 2.5 9.7 10.6 18 15.2l4.7 2.6-2.3 9.8c-1.2 5.4-2.5 10.4-2.8 11.2-.4 1.2-3.3 1.5-16.1 1.5-15.1 0-15.5-.1-14.5-1.9 1.3-2.6 1.2-7.1-.3-9.8-.7-1.2-3.1-3.8-5.5-5.8-2.3-2-4.2-4-4.2-4.4 0-.4 2.1-2.3 4.7-4.2 2.7-1.8 7.5-6 10.8-9.1 5.8-5.5 7.5-6.7 7.5-5.1zm72 9.9c0 2.2-4.8 16.1-7.7 22.6l-3.6 7.8h-31.4l2.4-10.3c1.4-5.6 2.6-10.3 2.6-10.3.1-.1 3.4-.4 7.2-.7 7.7-.6 21.3-4.6 26-7.6 3.2-2.1 4.5-2.5 4.5-1.5zm-212.5 21c2.2 1.8 6.7 4.6 9.9 6.3l5.8 3.1H27l-1.9-3.8c-2.7-5.4-7.1-16.3-7.1-17.8 0-.8 2.4 1 5.3 3.8 2.8 2.8 7 6.5 9.2 8.4zm90.3 5c.1.1.4 1.1.7 2.3.4 2 0 2.1-9.1 2.1-7.4 0-9.4-.3-9.4-1.4 0-.9 2.4-2.2 6.3-3.3 5.7-1.8 8-1.7 11.5.3zm-55.9 26.2c5.1 10.4 12 21.6 15.8 25.7 1 1.1 2.4 2.8 3.2 3.8 1.3 1.6 1.2 1.7-1.2.8-5.2-2-13.4-6.5-20.7-11.4-7.5-5-23.6-20.3-27.8-26.4l-2.2-3.1h27.6l5.3 10.6zm13.5-9.1c1.9 6 13 13.6 19.7 13.6 6.2 0 11-5.8 10.3-12.4-.2-2.6-.1-2.6 6.2-2.8 4.6-.1 6.4.2 6.4 1.1.1 1.9.1 36.2.1 43.1l-.1 5.7-2.7-.6c-10.3-2.4-25.6-14.5-33.5-26.5-5.3-8-11.9-21-11.2-22 .9-1.6 4.2-1 4.8.8zm105.6-1.2c0 .3-1.5 3.7-3.4 7.5-7.9 15.9-17 27.2-28.2 34.7-5.8 3.9-14 7.3-17.6 7.3-2 0-1.9 1.1-1.9-25.5 0-6.9 0-15.2.1-18.4v-6h25.5c14 0 25.5.2 25.5.4zm40 .3c0 .3-1.6 2.6-3.7 5.1-6.1 7.7-18.4 18.9-26.8 24.5-8.2 5.4-20.5 11.9-21.2 11.2-.2-.2.8-1.7 2.3-3.2 4.6-4.9 13.3-18.9 17.9-28.9l4.4-9.5 13.6.2c7.4 0 13.5.3 13.5.6z"/></svg>